<svg id="visual" viewBox="0 0 900 600" width="900" height="600" xmlns="http://www.w3.org/2000/svg" xmlns:xlink="http://www.w3.org/1999/xlink" version="1.1"><rect x="0" y="0" width="900" height="600" fill="#fff"></rect><path d="M0 339L25 314.3C50 289.7 100 240.3 150 236.8C200 233.3 250 275.7 300 278.7C350 281.7 400 245.3 450 236.5C500 227.7 550 246.3 600 256.8C650 267.3 700 269.7 750 278.5C800 287.3 850 302.7 875 310.3L900 318L900 601L875 601C850 601 800 601 750 601C700 601 650 601 600 601C550 601 500 601 450 601C400 601 350 601 300 601C250 601 200 601 150 601C100 601 50 601 25 601L0 601Z" fill="#ae445a"></path><path d="M0 321L25 321.2C50 321.3 100 321.7 150 335.8C200 350 250 378 300 387C350 396 400 386 450 364C500 342 550 308 600 297.3C650 286.7 700 299.3 750 304.7C800 310 850 308 875 307L900 306L900 601L875 601C850 601 800 601 750 601C700 601 650 601 600 601C550 601 500 601 450 601C400 601 350 601 300 601C250 601 200 601 150 601C100 601 50 601 25 601L0 601Z" fill="#8b3155"></path><path d="M0 423L25 419.8C50 416.7 100 410.3 150 418.2C200 426 250 448 300 446.2C350 444.3 400 418.7 450 395.8C500 373 550 353 600 358.5C650 364 700 395 750 398.7C800 402.3 850 378.7 875 366.8L900 355L900 601L875 601C850 601 800 601 750 601C700 601 650 601 600 601C550 601 500 601 450 601C400 601 350 601 300 601C250 601 200 601 150 601C100 601 50 601 25 601L0 601Z" fill="#66224b"></path><path d="M0 507L25 490.8C50 474.7 100 442.3 150 432.7C200 423 250 436 300 438.2C350 440.3 400 431.7 450 433.8C500 436 550 449 600 462.7C650 476.3 700 490.7 750 493.3C800 496 850 487 875 482.5L900 478L900 601L875 601C850 601 800 601 750 601C700 601 650 601 600 601C550 601 500 601 450 601C400 601 350 601 300 601C250 601 200 601 150 601C100 601 50 601 25 601L0 601Z" fill="#43153d"></path><path d="M0 542L25 538.2C50 534.3 100 526.7 150 527.5C200 528.3 250 537.7 300 538.3C350 539 400 531 450 521C500 511 550 499 600 504.3C650 509.7 700 532.3 750 534.3C800 536.3 850 517.7 875 508.3L900 499L900 601L875 601C850 601 800 601 750 601C700 601 650 601 600 601C550 601 500 601 450 601C400 601 350 601 300 601C250 601 200 601 150 601C100 601 50 601 25 601L0 601Z" fill="#22092c"></path></svg>